<?xml version="1.0" standalone="no"?>
<!DOCTYPE svg PUBLIC "-//W3C//DTD SVG 20010904//EN"
 "http://www.w3.org/TR/2001/REC-SVG-20010904/DTD/svg10.dtd">
<svg version="1.0" xmlns="http://www.w3.org/2000/svg"
 width="300.000000pt" height="176.000000pt" viewBox="0 0 300.000000 176.000000"
 preserveAspectRatio="xMidYMid meet">
<metadata>
Created by potrace 1.10, written by Peter Selinger 2001-2011
</metadata>
<g transform="translate(0.000000,176.000000) scale(0.100000,-0.100000)"
fill="#1194e6" stroke="none">
<path d="M1370 1699 c-228 -22 -493 -115 -654 -229 -79 -56 -224 -204 -204
-208 9 -2 26 6 37 17 17 17 29 19 98 14 107 -6 109 -7 85 -40 -19 -28 -52 -98
-52 -113 0 -19 71 -34 164 -35 56 0 104 -4 108 -10 4 -5 54 -8 115 -7 129 3
168 22 45 22 l-82 0 0 28 c0 15 -4 33 -9 41 -14 23 43 162 104 254 l18 28 111
-5 c61 -3 112 -5 114 -6 2 0 1 -4 -3 -9 -3 -5 -12 -56 -21 -113 -8 -57 -18
-125 -23 -151 -4 -26 -4 -50 1 -53 16 -10 28 8 28 43 0 37 11 106 34 218 l12
60 62 3 62 3 -15 -28 c-8 -15 -17 -39 -19 -53 -3 -14 -28 -49 -56 -78 -50 -54
-67 -89 -56 -117 8 -22 46 -18 73 7 19 18 27 20 45 10 13 -6 55 -12 93 -14 54
-3 78 -9 103 -26 43 -31 41 -50 -5 -55 -21 -2 -6 -4 32 -5 51 0 64 2 50 9 -15
7 -10 8 17 4 29 -5 59 3 127 30 76 31 97 35 135 30 25 -4 46 -5 46 -3 0 3 -9
33 -21 69 -23 69 -60 148 -92 192 -11 16 -16 32 -11 37 5 4 41 11 80 14 l71 7
64 -66 c70 -72 118 -141 155 -223 30 -65 62 -82 132 -71 64 11 122 11 122 0 0
-4 -11 -20 -25 -34 -19 -18 -23 -27 -14 -33 7 -4 21 3 35 19 13 15 27 27 32
27 6 0 16 -20 23 -45 7 -25 19 -45 26 -45 17 0 16 6 -4 66 -41 123 -172 288
-302 383 -255 185 -627 275 -991 240z m194 -24 c26 -19 14 -30 -46 -43 -56
-11 -63 0 -21 35 30 27 41 28 67 8z m-104 -4 c0 -5 -8 -19 -19 -32 -14 -17
-36 -26 -85 -34 -95 -16 -86 6 20 50 64 26 84 30 84 16z m158 -5 c-7 -8 -16
-12 -21 -9 -11 7 2 23 19 23 12 0 12 -2 2 -14z m-293 -16 c-3 -5 -11 -10 -16
-10 -5 0 -32 -15 -59 -34 -35 -24 -67 -37 -106 -42 -67 -8 -77 -1 -32 22 93
49 229 90 213 64z m416 -22 c64 -35 72 -55 38 -87 -34 -32 -76 -46 -94 -31 -8
7 -15 19 -15 27 0 8 -11 37 -24 63 -13 27 -22 51 -19 54 15 14 60 4 114 -26z
m87 11 c62 -21 74 -39 26 -39 -22 0 -114 45 -114 56 0 9 29 3 88 -17z m92 -16
c0 -13 -3 -13 -15 -3 -8 7 -15 16 -15 21 0 5 7 6 15 3 8 -4 15 -13 15 -21z
m-760 13 c0 -2 -32 -20 -71 -40 -68 -35 -129 -47 -129 -26 0 6 1 10 3 10 1 0
40 13 87 29 82 29 110 35 110 27z m459 -41 c29 -55 42 -98 31 -109 -11 -11
-210 -22 -234 -13 -11 5 -11 14 4 59 19 55 44 77 90 79 14 0 34 4 45 9 31 14
47 7 64 -25z m356 25 c3 -5 -1 -10 -9 -10 -8 0 -18 5 -21 10 -3 6 1 10 9 10 8
0 18 -4 21 -10z m140 -49 c49 -21 91 -44 93 -50 2 -7 -16 -11 -52 -11 -31 0
-56 4 -56 8 0 4 -25 23 -55 41 -30 18 -55 37 -55 42 0 17 36 8 125 -30z m-710
-3 c-3 -13 -10 -32 -15 -43 -4 -11 -11 -28 -13 -37 -5 -14 -18 -16 -104 -11
-54 3 -100 7 -102 8 -6 6 26 46 51 63 24 17 112 40 161 41 25 1 28 -2 22 -21z
m614 -19 c66 -42 70 -50 24 -55 -16 -2 -43 -6 -61 -9 -28 -5 -37 -1 -79 40
-37 37 -44 48 -32 56 32 20 84 9 148 -32z m-150 -23 c18 -19 29 -36 24 -39 -4
-2 -45 -8 -90 -12 -88 -8 -107 2 -48 24 20 7 43 23 51 37 9 13 19 24 23 24 4
0 22 -15 40 -34z m-896 9 c-4 -23 -38 -32 -83 -23 -44 10 -44 10 -20 24 28 15
106 15 103 -1z m197 5 c0 -6 -10 -21 -23 -34 -22 -21 -27 -22 -90 -13 -96 15
-85 35 23 44 30 2 57 6 59 9 9 8 31 4 31 -6z m-287 -46 l38 -7 -59 -61 c-32
-33 -66 -73 -76 -88 -17 -26 -19 -26 -109 -23 -51 2 -92 6 -92 9 0 10 113 106
166 141 55 36 68 39 132 29z m1444 -40 c79 -53 178 -154 235 -236 21 -32 37
-59 36 -59 -5 -2 -40 -6 -125 -14 l-82 -7 -29 65 c-32 69 -119 193 -171 241
-17 17 -31 33 -31 37 0 7 24 12 82 17 9 1 47 -19 85 -44z m-627 15 c0 -14 -17
-10 -23 5 -4 10 -1 13 9 9 7 -3 14 -9 14 -14z m-599 -5 c6 -3 1 -19 -11 -37
-19 -29 -35 -61 -86 -175 -10 -21 -20 -30 -27 -25 -7 4 -27 17 -45 29 -17 12
-55 28 -82 35 -31 8 -50 18 -48 26 2 7 35 47 73 89 l70 76 73 -6 c41 -3 78 -9
83 -12z m857 -58 c34 -55 92 -188 92 -210 0 -7 -13 -10 -38 -8 -26 3 -53 -5
-92 -24 -63 -32 -142 -43 -165 -24 -9 7 -14 18 -12 24 3 7 1 36 -4 66 -5 30
-12 75 -15 100 -3 25 -10 55 -15 68 -21 54 -19 55 126 60 l90 3 33 -55z m-282
17 c3 -16 7 -34 10 -41 2 -7 6 -34 10 -60 3 -26 10 -69 14 -95 4 -26 3 -50 -1
-53 -5 -2 -25 4 -46 14 -25 13 -55 18 -88 17 -29 -2 -59 3 -72 11 -30 19 -37
18 -64 -10 -24 -25 -39 -25 -39 -2 0 7 25 41 55 76 30 35 57 70 59 79 2 9 7
28 10 42 7 32 38 47 98 48 44 1 48 -1 54 -26z m-791 -169 c28 -12 61 -31 74
-42 21 -17 23 -23 15 -56 -5 -21 -12 -37 -17 -38 -37 -3 -238 16 -242 23 -3 4
10 40 30 79 40 80 40 80 140 34z m125 -121 c0 -20 -3 -24 -11 -16 -7 7 -9 19
-6 27 10 24 17 19 17 -11z"/>
<path d="M560 1246 c0 -9 5 -16 10 -16 6 0 10 4 10 9 0 6 -4 13 -10 16 -5 3
-10 -1 -10 -9z"/>
<path d="M343 1174 c-57 -38 -65 -58 -18 -50 56 11 109 -21 229 -135 113 -108
126 -118 126 -99 0 16 -178 192 -226 223 -21 14 -54 28 -72 32 -40 8 -31 24
18 30 49 6 119 -25 193 -86 114 -95 248 -124 439 -95 76 11 121 13 155 7 59
-11 155 -1 161 17 3 10 -11 13 -64 11 -38 -1 -105 -1 -149 0 -44 1 -96 -3
-115 -9 -44 -13 -162 -13 -230 0 -75 14 -147 50 -200 99 -59 55 -88 69 -152
77 -47 5 -58 2 -95 -22z"/>
<path d="M2045 1120 c-22 -5 -96 -27 -165 -49 -69 -23 -133 -41 -142 -41 -19
0 -24 -15 -9 -24 5 -4 65 12 133 33 223 71 237 73 395 41 71 -14 133 -35 215
-74 64 -30 142 -62 174 -71 143 -40 201 -58 229 -71 97 -46 73 -83 -32 -49
-17 5 -23 3 -23 -8 0 -14 26 -32 43 -29 4 1 7 -3 7 -9 0 -8 5 -8 15 1 13 10
15 9 15 -11 1 -24 1 -24 16 -4 13 17 16 18 24 5 8 -13 10 -13 10 1 0 9 7 20
16 23 41 16 -60 104 -144 125 -91 24 -112 30 -197 59 -50 17 -122 47 -161 66
-85 41 -151 62 -259 81 -88 16 -102 16 -160 5z"/>
<path d="M1499 1040 c-1 -27 -2 -54 -3 -60 -1 -5 4 -9 9 -7 6 1 10 13 10 26 1
14 6 26 13 29 8 2 12 -7 12 -27 0 -16 5 -33 10 -36 6 -4 10 12 10 40 0 42 -2
46 -22 43 -19 -2 -22 1 -20 20 2 12 -2 22 -7 22 -6 0 -12 -22 -12 -50z"/>
<path d="M1400 1069 c0 -6 7 -9 15 -5 12 4 15 -4 15 -44 0 -27 5 -52 10 -55 6
-4 10 13 10 44 0 39 4 51 15 51 8 0 15 5 15 10 0 6 -18 10 -40 10 -23 0 -40
-5 -40 -11z"/>
<path d="M1586 1034 c-11 -29 -6 -53 14 -64 21 -11 40 -6 40 10 0 5 -6 7 -14
4 -8 -3 -17 -1 -21 5 -4 7 4 11 19 11 14 0 26 4 26 9 0 24 -14 41 -35 41 -13
0 -26 -7 -29 -16z m38 -15 c-3 -5 -10 -7 -15 -3 -5 3 -7 10 -3 15 3 5 10 7 15
3 5 -3 7 -10 3 -15z"/>
<path d="M60 912 c0 -25 87 -85 185 -130 138 -62 135 -60 228 -83 93 -23 107
-23 107 -5 0 9 -17 16 -46 21 -25 3 -70 13 -100 21 -62 16 -270 109 -291 130
-8 8 -19 14 -24 14 -5 0 -9 5 -9 10 0 15 68 12 152 -5 40 -9 89 -18 108 -21
45 -7 170 -33 193 -40 10 -3 17 0 17 8 0 18 -60 34 -243 64 -146 24 -277 31
-277 16z"/>
<path d="M1053 863 c-7 -2 -17 -20 -23 -39 -13 -39 -26 -37 -35 6 -5 21 -13
30 -26 30 -24 0 -24 4 6 -58 14 -29 25 -66 25 -83 0 -40 24 -34 28 7 2 16 12
53 24 82 21 54 21 62 1 55z"/>
<path d="M2198 807 l-3 -62 -33 58 c-48 82 -62 76 -62 -23 0 -60 3 -80 13 -80
10 0 13 14 9 55 -2 30 0 55 5 55 5 0 21 -25 36 -55 19 -39 32 -55 47 -55 18 0
20 7 20 79 0 60 -4 80 -15 84 -11 5 -15 -7 -17 -56z"/>
<path d="M2260 865 c-1 0 -2 -37 -3 -83 l-2 -82 43 0 c31 0 42 4 39 13 -2 7
-15 11 -30 9 -23 -3 -27 0 -27 22 0 21 5 26 25 26 14 0 25 6 25 14 0 9 -8 12
-25 8 -22 -4 -25 -1 -25 22 0 21 5 26 25 26 14 0 25 6 25 13 0 9 -12 13 -35
13 -19 -1 -35 -1 -35 -1z"/>
<path d="M2531 861 c-11 -7 -13 -25 -9 -76 6 -73 10 -80 49 -90 46 -11 69 19
74 98 3 61 2 67 -16 67 -18 0 -19 -7 -18 -60 2 -68 -10 -92 -39 -74 -12 8 -18
29 -22 77 -4 54 -8 65 -19 58z"/>
<path d="M602 778 c2 -54 7 -83 16 -86 8 -2 12 8 12 32 0 32 3 36 25 36 16 0
25 6 25 15 0 9 -10 15 -26 15 -21 0 -25 4 -22 22 2 16 10 23 27 23 13 0 26 6
28 13 3 8 -9 12 -42 12 l-46 0 3 -82z"/>
<path d="M712 778 c2 -66 6 -83 18 -83 11 0 14 9 12 33 -4 42 21 44 38 3 6
-16 20 -31 31 -34 24 -6 24 0 -1 41 -18 30 -19 35 -5 48 37 37 10 74 -52 74
l-44 0 3 -82z m69 46 c11 -14 10 -18 -5 -30 -22 -16 -36 -10 -36 15 0 33 20
40 41 15z"/>
<path d="M850 780 l0 -80 45 0 c33 0 45 4 45 15 0 11 -8 13 -30 9 -27 -6 -30
-4 -30 20 0 22 4 26 30 26 21 0 28 4 24 14 -3 8 -15 11 -30 8 -22 -4 -25 -2
-22 19 2 17 9 24 27 24 13 0 26 6 28 13 3 8 -9 12 -41 12 l-46 0 0 -80z"/>
<path d="M1095 780 l0 -80 40 0 c62 0 85 21 85 79 0 61 -20 81 -81 81 l-44 0
0 -80z m83 37 c13 -11 16 -55 4 -74 -4 -7 -19 -14 -32 -15 -22 -3 -24 1 -26
47 -1 28 0 53 2 57 5 8 32 0 52 -15z"/>
<path d="M1250 780 l0 -80 45 0 c33 0 45 4 45 15 0 11 -8 13 -30 9 -27 -6 -30
-4 -30 20 0 21 5 26 25 26 14 0 25 6 25 14 0 9 -8 12 -26 8 -22 -4 -25 -2 -22
19 2 20 8 23 31 21 19 -3 27 1 27 12 0 12 -11 16 -45 16 l-45 0 0 -80z"/>
<path d="M1370 774 c0 -64 3 -85 13 -82 6 3 13 19 15 36 4 40 17 41 36 3 15
-27 43 -47 54 -37 3 3 -8 22 -23 42 -25 33 -26 38 -11 46 19 11 21 49 4 66 -7
7 -29 12 -50 12 l-38 0 0 -86z m60 56 c11 -7 12 -14 4 -27 -18 -30 -34 -27
-34 6 0 33 6 37 30 21z"/>
<path d="M1550 844 c0 -10 7 -14 23 -12 21 3 22 0 22 -67 0 -55 3 -70 15 -70
11 0 14 15 15 70 0 67 1 70 23 67 15 -2 22 2 22 12 0 13 -12 16 -60 16 -48 0
-60 -3 -60 -16z"/>
<path d="M1725 848 c-8 -22 -42 -122 -46 -137 -7 -24 21 -23 30 1 7 18 16 23
37 23 15 -1 30 -8 32 -16 6 -16 23 -29 33 -24 3 3 -5 40 -19 85 -20 62 -30 80
-44 80 -10 0 -21 -6 -23 -12z m35 -57 c7 -27 6 -31 -11 -31 -20 0 -23 10 -13
48 8 27 12 25 24 -17z"/>
<path d="M1829 838 c4 -13 16 -49 26 -81 15 -47 22 -57 38 -55 14 2 25 22 43
78 13 41 21 76 19 78 -14 14 -33 -13 -44 -62 -7 -31 -16 -56 -20 -56 -4 0 -13
27 -19 60 -10 48 -17 60 -32 60 -16 0 -18 -4 -11 -22z"/>
<path d="M1980 780 l0 -80 45 0 c33 0 45 4 45 15 0 11 -8 13 -30 9 -27 -6 -30
-4 -30 20 0 22 4 26 30 26 21 0 28 4 24 14 -3 8 -15 11 -30 8 -22 -4 -25 -2
-22 19 2 20 8 23 31 21 19 -3 27 1 27 12 0 12 -11 16 -45 16 l-45 0 0 -80z"/>
<path d="M2392 798 c-11 -35 -23 -71 -27 -80 -5 -14 -2 -18 13 -18 11 0 22 8
24 18 7 26 43 21 70 -8 31 -33 32 -13 4 71 -18 55 -30 75 -44 77 -16 3 -23 -8
-40 -60z m52 0 c9 -35 8 -38 -15 -38 -15 0 -19 4 -15 16 3 9 6 22 6 30 0 22
17 16 24 -8z"/>
<path d="M2670 856 c0 -3 9 -21 21 -40 l21 -36 -21 -36 c-12 -19 -21 -39 -21
-44 0 -19 31 4 47 34 l17 31 9 -32 c6 -19 18 -33 30 -37 31 -8 31 -2 2 42
l-26 40 25 41 c25 39 25 41 6 41 -13 0 -25 -11 -34 -32 l-14 -33 -12 33 c-8
21 -19 32 -31 32 -10 0 -19 -2 -19 -4z"/>
<path d="M2078 658 c-3 -21 -10 -24 -73 -29 -38 -3 -79 -10 -90 -17 -16 -9 -3
-10 61 -5 59 4 83 2 89 -7 4 -6 2 -17 -4 -23 -6 -6 -11 -19 -11 -28 0 -19 -48
-138 -61 -153 -8 -9 -83 67 -105 106 -9 16 -12 17 -22 6 -8 -11 1 -27 43 -73
30 -33 55 -69 55 -81 0 -21 -53 -104 -68 -105 -4 0 -51 -2 -106 -5 l-99 -5 7
33 c4 18 9 42 11 53 1 11 5 27 8 35 3 8 8 28 12 43 5 23 3 28 -11 25 -9 -2
-18 -10 -19 -18 -7 -49 -29 -138 -37 -153 -8 -16 -23 -17 -131 -15 l-122 3
-12 65 c-7 36 -15 76 -17 90 -2 14 -9 25 -17 25 -17 0 -14 -47 7 -119 8 -27
14 -53 14 -58 0 -4 -48 -6 -106 -4 -86 3 -108 7 -118 22 -12 16 -15 16 -47 -7
l-34 -24 33 -3 c25 -3 35 -10 43 -30 5 -15 14 -35 20 -45 17 -31 4 -30 -60 2
-67 34 -74 37 -78 24 -2 -5 24 -22 57 -38 33 -16 60 -33 60 -38 0 -5 -8 -6
-17 -2 -26 10 -125 45 -130 45 -1 0 -3 -6 -3 -14 0 -17 194 -72 290 -82 19 -2
81 -9 137 -15 79 -9 127 -9 205 0 57 6 119 13 138 15 186 19 451 124 608 242
53 40 192 181 192 195 0 5 -11 14 -25 19 -26 10 -58 -8 -250 -136 -27 -18 -51
-31 -53 -29 -2 2 14 28 37 57 54 72 103 170 91 182 -12 12 -10 14 -50 -64 -38
-76 -73 -124 -149 -203 -65 -67 -92 -72 -140 -28 -37 34 -38 48 -10 104 12 23
34 80 49 126 15 46 34 88 42 92 8 5 50 9 92 10 49 1 73 5 64 11 -7 4 -47 8
-88 7 -71 -2 -75 -1 -73 20 4 29 -25 28 -29 -1z m462 -167 c0 -13 -144 -154
-188 -184 -36 -24 -153 -47 -151 -30 0 10 71 58 184 127 50 29 101 63 115 75
27 22 40 26 40 12z m-538 -208 c27 -25 22 -33 -22 -33 -44 0 -45 1 -28 30 16
24 26 25 50 3z m98 -43 c0 -5 -4 -10 -10 -10 -5 0 -10 5 -10 10 0 6 5 10 10
10 6 0 10 -4 10 -10z m160 6 c0 -8 -173 -88 -240 -111 -36 -13 -73 -26 -82
-30 -11 -4 -18 -3 -18 4 0 6 15 17 34 25 19 8 60 31 93 52 81 52 111 63 166
64 26 0 47 -2 47 -4z m-208 -21 c2 -15 -139 -93 -207 -114 -33 -11 -68 -22
-77 -26 -27 -11 -22 10 5 22 13 6 49 35 82 64 52 48 64 55 114 60 69 8 82 7
83 -6z m-714 -4 c48 -1 53 -3 62 -28 16 -43 33 -76 49 -96 37 -44 -42 -32
-126 21 -73 44 -126 89 -120 99 3 5 22 7 44 6 21 -1 62 -2 91 -2z m529 0 c13
-2 -43 -54 -92 -85 -57 -36 -86 -50 -132 -65 -32 -10 -55 1 -32 14 6 4 24 36
40 71 l29 63 63 3 c57 3 107 2 124 -1z m-683 -17 c3 -8 2 -12 -4 -9 -6 3 -10
10 -10 16 0 14 7 11 14 -7z m460 8 c3 -5 -6 -31 -21 -58 -62 -118 -107 -125
-165 -24 -53 92 -55 90 71 90 60 0 112 -4 115 -8z m-390 -76 c25 -19 51 -36
58 -39 7 -2 10 -8 6 -12 -11 -12 -70 15 -100 46 -51 51 -28 54 36 5z m-44 -31
c10 -12 10 -15 -3 -15 -25 0 -47 11 -41 21 8 14 30 11 44 -6z"/>
<path d="M855 639 c33 -17 69 -36 80 -43 11 -7 41 -20 68 -30 54 -20 55 -23
28 -121 -11 -39 -27 -108 -36 -153 -26 -129 -15 -126 89 31 84 127 107 154
144 168 18 7 22 13 14 21 -24 24 -58 -2 -125 -96 -37 -52 -67 -99 -67 -103 -1
-12 -40 -59 -40 -48 0 6 14 64 31 130 44 169 45 164 -21 190 -30 12 -79 36
-108 53 -30 19 -67 32 -85 32 -30 0 -28 -2 28 -31z"/>
<path d="M1823 658 c-6 -7 -13 -32 -17 -55 -5 -35 -3 -43 9 -43 9 0 15 9 15
24 0 39 11 57 44 72 l31 13 -36 1 c-20 0 -41 -6 -46 -12z"/>
<path d="M2232 665 c3 -3 30 -12 62 -20 31 -8 79 -26 106 -40 27 -14 58 -25
69 -25 23 0 170 -75 236 -120 49 -34 114 -41 135 -15 21 25 -19 107 -48 97 -7
-2 -12 5 -12 17 0 22 -6 24 -50 22 -16 -1 -46 14 -84 43 -37 29 -68 46 -85 45
-24 0 -25 -1 -7 -12 10 -7 38 -26 61 -43 59 -44 86 -58 116 -60 16 -1 40 -16
62 -40 82 -88 19 -87 -128 1 -59 36 -136 74 -169 85 -34 10 -88 30 -121 44
-51 22 -160 37 -143 21z"/>
<path d="M413 632 c72 -170 239 -336 441 -441 91 -47 86 -45 86 -28 0 7 -31
28 -70 47 -38 19 -70 37 -70 41 0 4 16 6 35 3 19 -2 51 -6 70 -8 19 -3 35 -2
36 2 0 4 2 20 4 35 3 23 1 27 -14 22 -18 -5 -78 47 -117 103 -14 20 -13 22 13
28 54 13 119 45 131 65 11 17 10 23 -10 39 -30 25 -46 25 -24 1 10 -11 15 -25
11 -32 -9 -14 -78 -44 -122 -54 -32 -6 -33 -6 -70 69 -21 42 -43 76 -50 76
-17 0 -18 4 22 -79 20 -40 33 -77 30 -82 -4 -5 -16 -9 -29 -9 -12 0 -26 -4
-31 -9 -6 -4 -24 -13 -42 -19 -31 -10 -34 -9 -74 36 -44 50 -77 98 -110 163
-12 22 -30 44 -40 49 -17 9 -17 8 -6 -18z m410 -272 c45 -57 46 -60 25 -65
-55 -12 -81 -13 -104 -5 -29 11 -104 70 -104 81 0 9 98 48 120 48 8 0 36 -27
63 -59z m82 -80 c3 -5 -1 -10 -9 -10 -9 0 -16 5 -16 10 0 6 4 10 9 10 6 0 13
-4 16 -10z"/>
<path d="M1318 603 c-24 -6 -23 -45 2 -61 25 -15 26 -34 2 -30 -11 2 -20 -1
-20 -7 -1 -5 10 -10 26 -10 22 0 28 5 30 27 2 20 -2 28 -18 33 -25 8 -21 31 5
27 10 -2 15 2 13 9 -5 15 -16 18 -40 12z"/>
<path d="M1530 600 c0 -5 7 -10 15 -10 8 0 15 5 15 10 0 6 -7 10 -15 10 -8 0
-15 -4 -15 -10z"/>
<path d="M1655 578 c-8 -25 11 -83 28 -86 9 -2 17 1 17 7 0 6 -4 11 -10 11 -5
0 -10 11 -10 25 0 35 18 31 35 -7 12 -29 11 -35 -2 -51 -9 -9 -13 -20 -10 -24
9 -9 47 27 47 44 0 8 7 27 15 43 13 25 13 30 1 30 -7 0 -17 -12 -21 -27 l-8
-28 -6 25 c-4 16 -15 26 -29 28 -12 2 -22 8 -22 13 0 14 -20 11 -25 -3z"/>
<path d="M1387 564 c-4 -4 -7 -20 -7 -35 0 -19 6 -30 20 -34 28 -9 52 13 48
44 -2 19 -9 27 -28 29 -14 2 -29 0 -33 -4z m43 -35 c0 -10 -7 -19 -15 -19 -15
0 -21 31 -9 43 11 10 24 -3 24 -24z"/>
<path d="M1474 556 c-11 -29 1 -61 24 -64 27 -4 29 14 2 21 -11 3 -20 10 -20
17 0 7 9 14 20 17 11 3 20 9 20 14 0 15 -40 10 -46 -5z"/>
<path d="M1540 540 c0 -16 0 -32 0 -35 0 -3 3 -5 6 -5 4 0 8 16 9 35 1 19 -2
35 -7 35 -4 0 -8 -13 -8 -30z"/>
<path d="M1574 545 c-4 -15 -1 -32 6 -40 14 -17 50 -20 50 -5 0 6 -9 10 -20
10 -11 0 -20 5 -20 10 0 6 12 10 26 10 20 0 25 4 20 16 -3 9 -6 18 -6 20 0 2
-11 4 -25 4 -18 0 -26 -7 -31 -25z m46 5 c0 -5 -7 -10 -16 -10 -8 0 -12 5 -9
10 3 6 10 10 16 10 5 0 9 -4 9 -10z"/>
</g>
</svg>
